<mxfile host="app.diagrams.net" modified="2024-02-08T18:47:47.219Z" agent="Mozilla/5.0 (Windows NT 10.0; Win64; x64) AppleWebKit/537.36 (KHTML, like Gecko) Chrome/121.0.0.0 Safari/537.36" etag="zDPHGDIe_6SxPdXKncLC" version="23.1.1" type="github">
  <diagram name="Page-1" id="cjHsAITyEwWcfPlFlRxK">
    <mxGraphModel dx="794" dy="1623" grid="1" gridSize="10" guides="1" tooltips="1" connect="1" arrows="1" fold="1" page="1" pageScale="1" pageWidth="827" pageHeight="1169" math="0" shadow="0">
      <root>
        <mxCell id="0" />
        <mxCell id="1" parent="0" />
        <mxCell id="71-03SqJHi-1SEaVXAEd-1" value="" style="ellipse;whiteSpace=wrap;html=1;" vertex="1" parent="1">
          <mxGeometry x="90" y="-340" width="120" height="80" as="geometry" />
        </mxCell>
        <mxCell id="71-03SqJHi-1SEaVXAEd-2" value="tester" style="shape=umlActor;verticalLabelPosition=bottom;verticalAlign=top;html=1;outlineConnect=0;" vertex="1" parent="1">
          <mxGeometry x="330" y="-340" width="30" height="60" as="geometry" />
        </mxCell>
        <mxCell id="71-03SqJHi-1SEaVXAEd-3" value="test" style="text;strokeColor=none;align=center;fillColor=none;html=1;verticalAlign=middle;whiteSpace=wrap;rounded=0;" vertex="1" parent="1">
          <mxGeometry x="120" y="-325" width="60" height="30" as="geometry" />
        </mxCell>
      </root>
    </mxGraphModel>
  </diagram>
</mxfile>
